<svg xmlns="http://www.w3.org/2000/svg" viewBox="0 0 1024 1024"><rect width="1024" height="1024" fill="#000"/><rect x="62" y="62" width="900" height="900" rx="150" fill="none" stroke="#fff" stroke-width="10"/><path d="M183 370 L183 800 L470 755 M841 370 L841 800 L554 755" fill="none" stroke="#fff" stroke-width="10" stroke-linecap="round" stroke-linejoin="round"/><path d="M235 330 C340 255 455 275 512 350 C569 275 684 255 789 330 M235 330 L235 740 M789 330 L789 740" fill="none" stroke="#fff" stroke-width="10" stroke-linecap="round" stroke-linejoin="round"/><path d="M235 740 C345 690 450 705 512 780 C574 705 679 690 789 740" fill="none" stroke="#fff" stroke-width="10" stroke-linecap="round" stroke-linejoin="round"/><path d="M470 790 L470 815 L554 815 L554 790" fill="none" stroke="#fff" stroke-width="10" stroke-linecap="round" stroke-linejoin="round"/><path d="M512 330 L512 398 M512 675 L512 760" fill="none" stroke="#fff" stroke-width="10" stroke-linecap="round"/><text x="310" y="535" font-family="monospace" font-size="52" fill="#fff">class </text><text x="498" y="535" font-family="monospace" font-size="52" fill="#ff8500">Auto</text><text x="392" y="635" font-family="monospace" font-size="50" fill="#fff">public static...</text></svg>