<svg xmlns="http://www.w3.org/2000/svg" viewBox="0 0 1800 520">
  <rect width="1800" height="520" fill="#000000"/>
  <g transform="translate(95 70)" fill="none" stroke="#ffffff" stroke-width="8" stroke-linecap="round" stroke-linejoin="round">
    <path d="M25 110 L25 330 L195 305"/>
    <path d="M440 110 L440 330 L270 305"/>
    <path d="M65 90 L65 290"/>
    <path d="M400 90 L400 290"/>
    <path d="M65 90 C140 45 205 50 232 110 C259 50 325 45 400 90"/>
    <path d="M65 290 C145 255 205 265 232 322 C259 265 320 255 400 290"/>
    <path d="M232 92 L232 140"/>
    <path d="M232 250 L232 315"/>
  </g>
  <text x="185" y="235" font-family="Menlo, Consolas, 'DejaVu Sans Mono', monospace" font-size="34" fill="#ffffff">class </text>
  <text x="300" y="235" font-family="Menlo, Consolas, 'DejaVu Sans Mono', monospace" font-size="34" fill="#ff8500">Auto</text>
  <text x="225" y="285" font-family="Menlo, Consolas, 'DejaVu Sans Mono', monospace" font-size="31" fill="#ffffff">public static...</text>
  <text x="620" y="315" font-family="Arial, Helvetica, sans-serif" font-size="126" fill="#ffffff" letter-spacing="0">Kuro </text>
  <text x="960" y="315" font-family="Arial, Helvetica, sans-serif" font-size="126" fill="#ff8500" letter-spacing="0">N</text>
  <text x="1048" y="315" font-family="Arial, Helvetica, sans-serif" font-size="126" fill="#ffffff" letter-spacing="0">ote</text>
</svg>