<svg xmlns="http://www.w3.org/2000/svg" viewBox="0 0 1600 512"><rect width="1600" height="512" fill="#000"/><g transform="translate(70 65)"><path d="M25 95 L25 330 L180 305 M395 95 L395 330 L240 305" fill="none" stroke="#fff" stroke-width="6" stroke-linecap="round" stroke-linejoin="round"/><path d="M60 70 C130 25 185 35 210 90 C235 35 290 25 360 70 M60 70 L60 295 M360 70 L360 295" fill="none" stroke="#fff" stroke-width="6" stroke-linecap="round" stroke-linejoin="round"/><path d="M60 295 C130 260 185 270 210 330 C235 270 290 260 360 295" fill="none" stroke="#fff" stroke-width="6" stroke-linecap="round" stroke-linejoin="round"/><path d="M210 75 L210 113 M210 260 L210 320" fill="none" stroke="#fff" stroke-width="6" stroke-linecap="round"/><text x="85" y="168" font-family="monospace" font-size="28" fill="#fff">class </text><text x="180" y="168" font-family="monospace" font-size="28" fill="#ff8500">Auto</text><text x="120" y="218" font-family="monospace" font-size="28" fill="#fff">public static...</text></g><text x="560" y="285" font-family="Arial, sans-serif" font-size="118" fill="#fff">Kuro </text><text x="915" y="285" font-family="Arial, sans-serif" font-size="118" fill="#ff8500">N</text><text x="1005" y="285" font-family="Arial, sans-serif" font-size="118" fill="#fff">ote</text></svg>