<svg xmlns="http://www.w3.org/2000/svg" width="1600" height="520" viewBox="0 0 1600 520">
  <rect width="1600" height="520" fill="#050505"/>
  
  <g fill="none" stroke="#f7f7f7" stroke-width="12" stroke-linecap="round" stroke-linejoin="round">
    <path d="M 307.5 151.7 C 236.3 110.8, 156.2 126.5, 125.0 161.1 L 125.0 353.3 C 182.9 331.2, 258.6 337.6, 307.5 381.7 Z"/>
    <path d="M 307.5 151.7 C 378.7 110.8, 458.8 126.5, 489.9 161.1 L 489.9 353.3 C 432.1 331.2, 356.4 337.6, 307.5 381.7 Z"/>
    <path d="M 102.8 180.1 L 102.8 375.4 C 174.0 347.0, 254.1 353.3, 294.1 397.4 L 320.9 397.4 C 360.9 353.3, 441.0 347.0, 512.2 375.4 L 512.2 180.1"/>
    <path d="M 307.5 151.7 L 307.5 224.2"/>
    <path d="M 307.5 296.6 L 307.5 381.7"/>
  </g>
  
  <g font-family="'SFMono-Regular','Consolas','Menlo','Courier New',monospace" font-size="22.9" font-weight="500">
    <text x="187.4" y="227.3" fill="#f7f7f7">class <tspan fill="#ff8a00">Auto</tspan></text>
    <text x="218.6" y="259.9" fill="#f7f7f7">public static...</text>
  </g>


  <g font-family="'SF Pro Display','Inter','Helvetica Neue',Arial,sans-serif" font-size="142" font-weight="300" letter-spacing="16">
    <text x="610" y="313" fill="#f7f7f7">Kuro <tspan fill="#ff8a00">N</tspan>ote</text>
  </g>
</svg>