<svg xmlns="http://www.w3.org/2000/svg" width="1024" height="1024" viewBox="0 0 1024 1024">
  <rect width="1024" height="1024" rx="48" fill="#050505"/>
  <rect x="64" y="64" width="896" height="896" rx="48" fill="none" stroke="#f7f7f7" stroke-width="22"/>
  
  <g fill="none" stroke="#f7f7f7" stroke-width="18" stroke-linecap="round" stroke-linejoin="round">
    <path d="M 512.0 316.9 C 413.8 257.8, 303.2 280.5, 260.3 330.6 L 260.3 608.1 C 340.1 576.2, 444.5 585.4, 512.0 649.0 Z"/>
    <path d="M 512.0 316.9 C 610.2 257.8, 720.8 280.5, 763.7 330.6 L 763.7 608.1 C 683.9 576.2, 579.5 585.4, 512.0 649.0 Z"/>
    <path d="M 229.6 357.9 L 229.6 640.0 C 327.8 599.0, 438.3 608.1, 493.6 671.8 L 530.4 671.8 C 585.7 608.1, 696.2 599.0, 794.4 640.0 L 794.4 357.9"/>
    <path d="M 512.0 316.9 L 512.0 421.5"/>
    <path d="M 512.0 526.2 L 512.0 649.0"/>
  </g>
  
  <g font-family="'SFMono-Regular','Consolas','Menlo','Courier New',monospace" font-size="33.0" font-weight="500">
    <text x="346.2" y="426.1" fill="#f7f7f7">class <tspan fill="#ff8a00">Auto</tspan></text>
    <text x="389.3" y="473.1" fill="#f7f7f7">public static...</text>
  </g>


</svg>